<svg width="120" height="120" viewBox="0 0 120 120" fill="none" xmlns="http://www.w3.org/2000/svg">
<circle cx="60" cy="60" r="60" fill="#4793FF"/>
<g filter="url(#filter0_d)">
<g clip-path="url(#clip0)">
<path d="M71.9996 63.6671C70.525 63.6671 69.3331 64.8619 69.3331 66.3336V77.0005C69.3331 78.4697 68.1383 79.667 66.6661 79.667H58.6662V39.6674C58.6662 37.3901 57.2156 35.3554 55.0344 34.5981L54.2449 34.3339H66.6661C68.1383 34.3339 69.3331 35.5312 69.3331 37.0009V45.0008C69.3331 46.4725 70.525 47.6673 71.9996 47.6673C73.4742 47.6673 74.6661 46.4725 74.6661 45.0008V37.0009C74.6661 32.5903 71.0767 29.001 66.6661 29.001H37.9999C37.8984 29.001 37.8134 29.0464 37.7148 29.0596C37.5864 29.0488 37.4638 29.001 37.3334 29.001C34.3921 29.001 32 31.3926 32 34.3339V82.3335C32 84.6108 33.4507 86.6454 35.6318 87.4027L51.68 92.7523C52.2239 92.9203 52.7649 93.0003 53.3333 93.0003C56.2746 93.0003 58.6662 90.6083 58.6662 87.6669V85.0004H66.6661C71.0767 85.0004 74.6661 81.4111 74.6661 77.0005V66.3336C74.6661 64.8619 73.4742 63.6671 71.9996 63.6671V63.6671Z" fill="white"/>
<path d="M95.218 53.7819L84.5511 43.1155C83.7889 42.3529 82.6419 42.1234 81.6449 42.5365C80.6502 42.95 79.9994 43.9232 79.9994 45.0008V53.0007H69.333C67.8608 53.0007 66.666 54.195 66.666 55.6672C66.666 57.1393 67.8608 58.3336 69.333 58.3336H79.9994V66.3336C79.9994 67.4112 80.6502 68.3843 81.6449 68.7979C82.6419 69.211 83.7889 68.9815 84.5511 68.2193L95.218 57.5524C96.2604 56.5099 96.2604 54.8244 95.218 53.7819V53.7819Z" fill="white"/>
</g>
</g>
<defs>
<filter id="filter0_d" x="28" y="29" width="72" height="72" filterUnits="userSpaceOnUse" color-interpolation-filters="sRGB">
<feFlood flood-opacity="0" result="BackgroundImageFix"/>
<feColorMatrix in="SourceAlpha" type="matrix" values="0 0 0 0 0 0 0 0 0 0 0 0 0 0 0 0 0 0 127 0"/>
<feOffset dy="4"/>
<feGaussianBlur stdDeviation="2"/>
<feColorMatrix type="matrix" values="0 0 0 0 0 0 0 0 0 0 0 0 0 0 0 0 0 0 0.25 0"/>
<feBlend mode="normal" in2="BackgroundImageFix" result="effect1_dropShadow"/>
<feBlend mode="normal" in="SourceGraphic" in2="effect1_dropShadow" result="shape"/>
</filter>
<clipPath id="clip0">
<rect width="64" height="64" fill="white" transform="translate(32 29)"/>
</clipPath>
</defs>
</svg>
