<svg width="120" height="120" viewBox="0 0 120 120" fill="none" xmlns="http://www.w3.org/2000/svg">
<circle cx="60" cy="60" r="60" fill="#4793FF"/>
<g filter="url(#filter0_d)">
<path d="M82.1917 29.04C82.125 29.0347 82.069 29 81.9997 29H53.333C48.9223 29 45.333 32.5893 45.333 37V39.6667C45.333 41.1387 46.5277 42.3333 47.9997 42.3333C49.4717 42.3333 50.6663 41.1387 50.6663 39.6667V37C50.6663 35.5307 51.8637 34.3333 53.333 34.3333H65.757L64.9437 34.6053C62.7837 35.352 61.333 37.3867 61.333 39.6667V79.6667H53.333C51.8637 79.6667 50.6663 78.4693 50.6663 77V71.6667C50.6663 70.1947 49.4717 69 47.9997 69C46.5277 69 45.333 70.1947 45.333 71.6667V77C45.333 81.4107 48.9223 85 53.333 85H61.333V87.6667C61.333 90.608 63.725 93 66.6663 93C67.237 93 67.7783 92.9173 68.365 92.736L84.3863 87.3947C86.549 86.648 87.9996 84.6133 87.9996 82.3333V34.3333C87.9996 31.224 85.3197 28.7867 82.1917 29.04V29.04Z" fill="white"/>
<path d="M52.552 53.7815L41.8853 43.1148C41.1227 42.3522 39.976 42.1228 38.9787 42.5362C37.984 42.9495 37.3333 43.9228 37.3333 45.0002V53.0002H26.6667C25.1947 53.0002 24 54.1948 24 55.6668C24 57.1388 25.1947 58.3335 26.6667 58.3335H37.3333V66.3335C37.3333 67.4108 37.984 68.3842 38.9787 68.7975C39.976 69.2108 41.1227 68.9815 41.8853 68.2188L52.552 57.5522C53.5947 56.5095 53.5947 54.8242 52.552 53.7815Z" fill="white"/>
</g>
<defs>
<filter id="filter0_d" x="20" y="29" width="72" height="72" filterUnits="userSpaceOnUse" color-interpolation-filters="sRGB">
<feFlood flood-opacity="0" result="BackgroundImageFix"/>
<feColorMatrix in="SourceAlpha" type="matrix" values="0 0 0 0 0 0 0 0 0 0 0 0 0 0 0 0 0 0 127 0"/>
<feOffset dy="4"/>
<feGaussianBlur stdDeviation="2"/>
<feColorMatrix type="matrix" values="0 0 0 0 0 0 0 0 0 0 0 0 0 0 0 0 0 0 0.25 0"/>
<feBlend mode="normal" in2="BackgroundImageFix" result="effect1_dropShadow"/>
<feBlend mode="normal" in="SourceGraphic" in2="effect1_dropShadow" result="shape"/>
</filter>
</defs>
</svg>
