<svg width="100" height="100" viewBox="0 0 100 100" fill="none" xmlns="http://www.w3.org/2000/svg">
<path fill-rule="evenodd" clip-rule="evenodd" d="M61.4089 83.3181C61.7446 83.3281 62.0815 83.3332 62.4196 83.3332C80.8291 83.3332 95.753 68.4093 95.753 49.9998C95.753 31.5903 80.8291 16.6665 62.4196 16.6665C51.893 16.6665 42.5061 21.546 36.3973 29.1665H31.3314C16.3737 29.1665 4.24805 41.2921 4.24805 56.2498C4.24805 71.2075 16.3737 83.3332 31.3314 83.3332H60.4981C60.8029 83.3332 61.1065 83.3281 61.4089 83.3181ZM69.5477 73.8372C79.3401 70.6339 87.4196 61.1728 87.4196 49.9998C87.4196 36.1927 76.2268 24.9998 62.4196 24.9998C48.6125 24.9998 37.4196 36.1927 37.4196 49.9998H29.0863C29.0863 45.5794 29.9468 41.36 31.5093 37.4998H31.3314C20.976 37.4998 12.5814 45.8945 12.5814 56.2498C12.5814 66.6052 20.976 74.9998 31.3314 74.9998H60.4981C62.7886 74.9998 66.2676 74.5891 69.5477 73.8372Z" fill="#EB7224"/>
<g clip-path="url(#clip0)">
<path d="M50 100C77.6142 100 100 77.6142 100 50C100 22.3858 77.6142 0 50 0C22.3858 0 0 22.3858 0 50C0 77.6142 22.3858 100 50 100Z" fill="#4793FF"/>
<path d="M100.005 50.0003C100.005 45.9933 99.5309 42.0974 98.6406 38.363L83.6088 23.3312L81.5809 24.1866L74.349 17.173C74.349 17.173 71.6199 21.6476 68.5273 19.8085L63.6713 15.0728L63.3842 21.9729L13.5254 71.1772L41.6496 99.3015C44.367 99.7587 47.1578 100 50.0053 100C77.6195 100 100.005 77.6146 100.005 50.0003Z" fill="#424FDD"/>
<path d="M89.7553 44.6423L91.8652 43.2929L89.6014 41.845C87.1521 40.2786 86.491 36.9927 88.1441 34.6011L89.6721 32.3905L87.2045 31.962C84.3228 31.4614 82.441 28.6581 83.0689 25.8017L83.6066 23.3556L80.9822 23.9325C78.1426 24.5567 75.3518 22.7007 74.8295 19.8405L74.3469 17.1972L72.299 18.639C69.9074 20.3228 66.5945 19.6712 65.0187 17.2071L63.6693 15.0972L62.2215 17.361C60.6551 19.8103 57.3691 20.4714 54.9775 18.8183L52.767 17.2903L52.3385 19.7579C51.8379 22.6395 49.0348 24.5214 46.1781 23.8935L43.732 23.3558L44.309 25.9802C44.9332 28.8198 43.0771 31.6106 40.217 32.1329L37.5736 32.6155L39.0154 34.6634C40.6992 37.055 40.0477 40.3679 37.5836 41.9437L35.4736 43.2931L37.7373 44.7409C40.1867 46.3073 40.8477 49.5933 39.1945 51.9849L37.6666 54.1954L40.1342 54.6239C43.0158 55.1245 44.8977 57.9278 44.2697 60.7843L43.732 63.2304L46.3564 62.6534C49.1961 62.0292 51.9869 63.8852 52.5092 66.7454L52.9918 69.389L55.0396 67.9472C57.4313 66.2634 60.7441 66.9149 62.3199 69.379L63.6693 71.489L65.1172 69.2251C66.6836 66.7759 69.9695 66.1147 72.3611 67.7679L74.5717 69.2958L75.0002 66.8282C75.5008 63.9466 78.3041 62.0647 81.1605 62.6927L83.6066 63.2304L83.0297 60.606C82.4055 57.7663 84.2615 54.9755 87.1217 54.4532L89.7652 53.9706L88.3234 51.9227C86.6396 49.5311 87.2912 46.2181 89.7553 44.6423V44.6423Z" fill="#FDBF2D"/>
<path d="M88.3203 51.8989L89.7617 53.9458L87.1191 54.4282C84.2578 54.9517 82.4023 57.7427 83.0273 60.5825L83.6035 63.2056L81.1582 62.6685C78.3008 62.0396 75.498 63.9224 74.9961 66.8032L74.5684 69.272L72.3574 67.7427C69.9668 66.0903 66.6797 66.7505 65.1133 69.1997L63.666 71.4653V15.0728L65.0156 17.1821C66.5918 19.647 69.9043 20.2993 72.2949 18.6138L74.3438 17.1724L74.8262 19.8169C75.3477 22.6763 78.1387 24.5317 80.9785 23.9087L83.6035 23.3306L83.0664 25.7778C82.4375 28.6333 84.3203 31.438 87.2012 31.938L89.668 32.3657L88.1406 34.5767C86.4883 36.9692 87.1484 40.2544 89.5977 41.8208L91.8613 43.2681L89.752 44.6177C87.2871 46.1939 86.6367 49.5064 88.3203 51.8989Z" fill="#FD9827"/>
<path d="M63.6658 63.0329C74.5809 63.0329 83.4293 54.1846 83.4293 43.2696C83.4293 32.3547 74.5809 23.5063 63.6658 23.5063C52.7508 23.5063 43.9023 32.3547 43.9023 43.2696C43.9023 54.1846 52.7508 63.0329 63.6658 63.0329Z" fill="#FFE05F"/>
<path d="M83.4297 43.2681C83.4297 54.1841 74.5801 63.0317 63.666 63.0317V23.5063C74.5801 23.5063 83.4297 32.354 83.4297 43.2681V43.2681Z" fill="#F9CB0D"/>
<path d="M65.4297 49.6014C64.9195 49.6014 64.4174 49.6342 63.9227 49.6916C63.9713 49.1375 63.9977 48.5769 63.9977 48.0101C63.9977 37.5193 55.4932 29.0146 45.0022 29.0146C36.2648 29.0146 28.9064 34.9143 26.6902 42.9467C25.9865 42.8541 25.2689 42.8057 24.54 42.8057C15.5238 42.8057 8.21484 50.1146 8.21484 59.1309C8.21484 68.1471 15.5238 75.456 24.54 75.456H65.4297C72.5693 75.456 78.357 69.6682 78.357 62.5287C78.357 55.3891 72.5693 49.6014 65.4297 49.6014V49.6014Z" fill="white"/>
<path d="M78.3569 62.5285C78.3569 69.6686 72.5694 75.4563 65.4293 75.4563H43.2861V29.0918C43.8516 29.0398 44.4238 29.0146 45.0027 29.0146C55.4938 29.0146 63.998 37.5189 63.998 48.0102C63.998 48.5773 63.9713 49.1377 63.9224 49.6916C64.4176 49.6346 64.9191 49.601 65.4293 49.601C72.5694 49.601 78.3569 55.39 78.3569 62.5285V62.5285Z" fill="#DAEFEC"/>
</g>
<defs>
<clipPath id="clip0">
<rect width="100" height="100" fill="white"/>
</clipPath>
</defs>
</svg>
