<svg width="703" height="152" viewBox="0 0 703 152" fill="none" xmlns="http://www.w3.org/2000/svg">
<g filter="url(#filter0_d)">
<path d="M640.691 80.372C640.691 62.6811 630.543 51.2764 613.302 51.2764C599.113 51.2764 586.002 63.0403 586.002 80.7312C586.002 99.769 599.472 110.815 614.649 110.815C628.119 110.815 637.009 102.912 639.973 93.1237L628.658 89.5317C626.772 95.0993 622.641 99.32 614.649 99.32C606.387 99.32 599.652 93.6625 599.293 85.1314H640.242C640.511 84.862 640.691 82.5272 640.691 80.372ZM599.742 74.8043C600.191 68.7876 605.04 62.4117 613.481 62.4117C622.731 62.4117 627.041 68.2488 627.311 74.8043H599.742Z" fill="#054F97"/>
<path d="M673.199 75.7921L664.309 74.0859C660.717 73.3675 658.472 71.2123 658.472 68.2488C658.472 64.8364 661.974 61.7831 666.823 61.7831C674.636 61.7831 677.06 66.9916 677.599 70.2244L689.273 66.9916C688.286 61.4239 683.077 51.3662 666.823 51.3662C654.79 51.3662 645.45 59.6279 645.45 69.4162C645.45 77.1391 650.839 83.6048 661.076 85.76L669.697 87.5561C674.366 88.4541 676.522 90.7889 676.522 93.7524C676.522 97.1648 673.558 100.218 667.811 100.218C660.357 100.218 656.496 95.728 655.957 90.6991L643.924 93.932C644.642 100.308 651.108 110.815 667.991 110.815C682.808 110.815 689.992 101.385 689.992 92.8543C689.992 84.5028 684.245 78.0372 673.199 75.7921Z" fill="#054F97"/>
<path d="M174.802 46.4271V51.5457H186.387V65.5547H174.802V110.455H159.177V65.5547H148.939V51.6355H159.177V46.0679C159.177 31.6099 168.247 22.3604 182.256 22.3604C185.938 22.3604 189.17 23.0788 190.428 23.6176V36.8183C188.901 36.3693 187.015 36.1897 184.86 36.1897C181.896 36.1897 174.802 37.1775 174.802 46.4271Z" fill="#054F97"/>
<path d="M214.584 33.4058C214.584 38.4347 210.543 42.3859 205.424 42.3859C200.485 42.3859 196.444 38.3449 196.444 33.4058C196.444 28.3769 200.485 24.2461 205.424 24.2461C210.543 24.3359 214.584 28.3769 214.584 33.4058Z" fill="#054F97"/>
<path d="M213.237 51.6353H197.881V110.635H213.237V51.6353Z" fill="#054F97"/>
<path d="M467.015 51.6353H451.659V110.635H467.015V51.6353Z" fill="#054F97"/>
<path d="M468.362 33.4058C468.362 38.4347 464.321 42.3859 459.203 42.3859C454.264 42.3859 450.223 38.3449 450.223 33.4058C450.223 28.3769 454.264 24.2461 459.203 24.2461C464.321 24.3359 468.362 28.3769 468.362 33.4058Z" fill="#054F97"/>
<path d="M378.291 72.9185H353.686V86.658H378.291V72.9185Z" fill="#054F97"/>
<path d="M522.063 63.3094L491.441 98.5115H522.063V110.545H474.648V98.5115L504.911 63.6686H474.648V51.6353H522.063V63.3094Z" fill="#054F97"/>
<path d="M581.691 77.139V110.455H567.951V76.8696C567.951 66.0935 561.216 63.8484 555.648 63.8484C548.105 63.8484 543.256 69.3263 543.256 77.6778V110.545H529.067L528.888 51.6355H542.807V56.1255L543.166 55.7663C546.938 51.8151 553.134 51.0967 557.265 51.0967C557.714 51.0967 558.163 51.0967 558.612 51.0967C565.796 51.3661 571.364 53.5213 575.225 57.4726C579.446 61.8728 581.691 68.5181 581.691 77.139Z" fill="#054F97"/>
<path d="M315.879 51.0967C299.446 51.0967 286.155 64.477 286.155 80.8209C286.155 97.2545 299.536 110.545 315.879 110.545C332.313 110.545 345.604 97.1647 345.604 80.8209C345.604 64.3872 332.313 51.0967 315.879 51.0967ZM315.879 97.2545C306.81 97.2545 299.446 89.8908 299.446 80.8209C299.446 71.7509 306.81 64.3872 315.879 64.3872C324.949 64.3872 332.313 71.7509 332.313 80.8209C332.403 89.8908 324.949 97.2545 315.879 97.2545Z" fill="#054F97"/>
<path d="M279.959 79.2938V24.3354H264.603V54.778L264.334 54.5984C260.023 52.2636 255.174 51.0064 250.235 51.0064C233.801 51.0962 220.421 64.3868 220.421 80.8204C220.421 97.254 233.801 110.545 250.145 110.545C255.084 110.545 259.933 109.287 264.244 106.953L264.513 106.773V110.455H279.869V82.347C279.869 81.8082 279.869 81.3592 279.869 80.8204C279.959 80.2816 279.959 79.7428 279.959 79.2938ZM264.603 88.9025C261.64 94.1109 256.162 97.254 250.235 97.254C241.165 97.254 233.801 89.8903 233.801 80.8204C233.801 71.7505 241.165 64.3868 250.235 64.3868C256.162 64.3868 261.64 67.6196 264.603 72.7383C265.95 75.1629 266.758 77.9467 266.758 80.8204C266.669 83.694 265.95 86.4778 264.603 88.9025Z" fill="#054F97"/>
<path d="M416.278 51.0962C411.339 51.0962 406.489 52.3534 402.179 54.6882L401.82 54.778V24.3354H386.464V110.634H401.82V106.863L402.089 107.042C406.4 109.377 411.339 110.634 416.188 110.634C432.622 110.634 445.912 97.254 445.912 80.9102C446.002 64.3868 432.622 51.0962 416.278 51.0962ZM416.278 97.254C410.351 97.254 404.783 94.0211 401.91 88.8127C400.563 86.3881 399.844 83.6042 399.844 80.8204C399.844 78.0365 400.563 75.2527 401.91 72.8281C404.783 67.6196 410.351 64.3868 416.278 64.3868C425.348 64.3868 432.711 71.7505 432.711 80.8204C432.711 89.8903 425.348 97.254 416.278 97.254Z" fill="#054F97"/>
<path d="M84.2826 60.0769C88.5931 54.5092 91.0177 47.6843 91.0177 40.59C90.9279 23.7074 77.7271 9.87799 60.9343 8.97998H59.9465V26.3116L60.7547 26.4014C68.0286 27.1198 73.5963 33.2263 73.5963 40.59C73.5963 47.9537 68.1184 54.0602 60.7547 54.7786L59.9465 54.8684V72.2H62.3711C65.4244 72.2 69.8246 72.7388 72.6085 73.996C78.8048 76.7799 83.2948 82.2577 83.2948 89.4418C83.2948 98.9608 75.3025 106.684 65.7836 106.684H39.8311V124.015H66.053C85.1806 124.015 100.716 108.48 100.716 89.352C100.626 77.4983 94.4302 66.3629 84.2826 60.0769Z" fill="#054F97"/>
<path d="M53.0319 54.8684H32.6471V26.3116H53.0319V8.97998H15.3154V124.105H32.6471V72.2H53.0319V54.8684Z" fill="#EB7224"/>
</g>
<defs>
<filter id="filter0_d" x="0" y="0" width="702.073" height="151.951" filterUnits="userSpaceOnUse" color-interpolation-filters="sRGB">
<feFlood flood-opacity="0" result="BackgroundImageFix"/>
<feColorMatrix in="SourceAlpha" type="matrix" values="0 0 0 0 0 0 0 0 0 0 0 0 0 0 0 0 0 0 127 0"/>
<feOffset dy="4"/>
<feGaussianBlur stdDeviation="2"/>
<feColorMatrix type="matrix" values="0 0 0 0 0 0 0 0 0 0 0 0 0 0 0 0 0 0 0.25 0"/>
<feBlend mode="normal" in2="BackgroundImageFix" result="effect1_dropShadow"/>
<feBlend mode="normal" in="SourceGraphic" in2="effect1_dropShadow" result="shape"/>
</filter>
</defs>
</svg>
